<?xml version="1.0" encoding="iso-8859-1"?>
<!-- Generator: Adobe Illustrator 16.0.0, SVG Export Plug-In . SVG Version: 6.00 Build 0)  -->
<!DOCTYPE svg PUBLIC "-//W3C//DTD SVG 1.1//EN" "http://www.w3.org/Graphics/SVG/1.1/DTD/svg11.dtd">
<svg version="1.1" id="Capa_1" xmlns="http://www.w3.org/2000/svg" xmlns:xlink="http://www.w3.org/1999/xlink" x="0px" y="0px"
	 width="46.927px" height="46.927px" viewBox="0 0 46.927 46.927" style="enable-background:new 0 0 46.927 46.927;"
   fill='rgb(96 165 250)'
	 xml:space="preserve">
<g>
	<g>
		<path d="M42.615,31.117l0.061-1.342l1.262-0.881l-0.181-1.503l-1.842-0.14l-1.443-1.645l-1.021-0.278l-0.66-0.122l0.08-0.602
			l-0.844-0.119v0.34l-2.104-0.521l-0.848-1.294l0.347-0.628l-1.333-1.944l-0.229-1.422H33.32l0.182,1.382l0.919,1.422l-0.101,0.562
			l-0.779-0.12l-0.961-1.64v-1.906l-1.002-0.481v-2.123l1.861-2.264l-0.119-1.353l0.521-0.37l-0.621-0.581l0.039-1.022L32.52,9.862
			h-2.063l-0.341,0.361l-2.465-0.02L26.749,9.44l0.702-0.5h1.802V8.604l-0.841-0.125l0.542-0.42l1.182-0.182l1.763-1.202h3.045
			l1.664,0.501l0.561,0.32l0.501,0.04l0.742-0.721l1.336-0.011c-4.22-4.151-10.007-6.715-16.393-6.715
			c-6.07,0-11.599,2.315-15.754,6.109l0.6,0.445l0.398,0.031L9.54,5.721l1.04,0.036l1.385,0.206l0.87,0.44l9.314,0.481l2.555,1.081
			l-0.359,0.306L22.45,7.965l-0.029,0.366l0.691,0.476l-0.902,0.18v0.542L20.349,9.65l1.411,1.322l0.241,1.082l-0.632,0.33
			l-1.984-1.621v-0.751l0.481-0.752L19.507,8.81l-2.165,1.442l-1.713-0.151l-0.57-0.42l-0.721,1.022l0.33,0.66l2.493,0.301
			l1.002,1.142l-0.25,0.331l-0.781-0.782l-0.359,0.39l0.609,0.805l-0.13,1.513l-1.603-0.001l-0.08,1.221l1.353,0.821l0.47,0.62
			l-0.711,0.191l-2.523-1.924h-0.812l0.031,1.563l1.832,1.922l0.14,1.393l-0.922,0.77l-2.102,0.752l0.209,0.781l-0.382,0.27
			l-0.429-0.66l0.061-0.511l-0.752-0.24l-0.422,0.57l0.061,1.082l1.481,1.192l0.149,0.9l-0.898,0.598l-0.681-0.071l-1.224-1.387
			l-0.24,0.962l2.314,3.306l-0.151,0.479l-2.854-2.733v-2.765l-2.163-1.922L4.68,22.077l-0.978,0.365l-0.604,1.302l-0.323,2.418
			L2.19,27.01l-0.586-0.137L0,24.236c0.409,12.551,10.705,22.602,23.354,22.602c9.075,0,16.937-5.176,20.81-12.732l-1.729-2.166
			L42.615,31.117z M3.529,27.459l-0.911,0.339l-0.252-0.68l0.528-0.746l0.734,0.145L3.529,27.459z M20.338,29.381l0.64,0.38
			l-0.05,0.698l0.672-0.017l0.722-0.381l2.584,1.172l0.101,1.393h0.541v0.461h-1.084v-1.143l-0.62,0.062l-0.582,0.621l-1.604,0.101
			l-0.02-0.742h0.482l-0.021-0.36l-0.742-0.39l-1.321-0.19l-0.611-0.751L20.338,29.381z M17.489,32.607l0.048-0.277l0.549-0.081
			l0.045,0.426l-0.337-0.037v0.247h-0.481v0.211h-0.467v-0.421h0.031L17.489,32.607z M17.117,32.406l-0.315-0.098v-0.217h0.405
			L17.117,32.406z M16.944,29.595l0.015,1.952l-0.44,0.04v-0.662l-0.42-0.15l0.079,0.933h-0.54v-1.463h0.261l-0.013-0.238
			L16.944,29.595z M16.599,32.178v0.228l-0.218,0.035v0.233h-0.3v0.187l-0.443,0.047v-0.233l0.284-0.269l0.196-0.228H16.599z
			 M12.302,28.906l2.096-1.137l0.277-0.248l0.232-0.625h0.362l0.12,0.617l0.248,0.104v1.979l-0.248,0.163v0.263l-0.399,0.361
			l-0.225,0.571H13l-0.699-0.925L12.302,28.906L12.302,28.906z M15.39,32.406v0.269h-0.482v-0.269H15.39z M10.502,31.805h0.56v-0.2
			l-0.421-0.141l-2.943-3.605L8.2,27.459l2.065,1.86l-0.023,0.303l0.439,0.581l1.604-0.021l0.06,0.741l-0.581,0.06l-0.24-0.101
			l0.06,0.802l1.483-0.039l1.2,0.762l-3.626-0.158L10.502,31.805z M21.643,43.92L20.8,44.384l-1.043-0.113l0.982-1.086l0.919,0.101
			L21.643,43.92z M22.321,42.745l-2.952-0.104l-0.961-2.116l-2.599,0.104l-3.206,1.103V41.15l0.662-0.642l0.08-3.285l1.101-0.76
			l0.989-0.013l1.862-2.123l1.176-0.09v0.44h0.401l0.982-1.394h1.367l1.163,0.699l-0.547,0.533l-0.647-0.132l0.043,0.877
			l0.342,0.206l1.224,0.092l0.261-2.213l0.641,0.03l0.712,1.22l0.082,1.764l1.079,0.925l0.289,1.184l-0.7,1.599L22.321,42.745z
			 M29.283,42.367l-0.799,0.354l-0.748,0.491l-2.646,1.621L24.003,45v-0.496l0.354-0.291l2.084-1.482l1.303-0.181l0.701-0.479
			l0.101-1.534l0.798-0.048l0.014,0.981l0.435-0.086l0.296,0.527L29.283,42.367z"/>
		<polygon points="44.538,14.46 43.742,14.46 43.188,15.061 43.096,15.662 43.518,15.887 		"/>
		<polygon points="45.424,14.264 45.921,14.145 45.424,13.692 		"/>
		<polygon points="44.845,14.264 45.169,14.264 45.169,13.769 44.96,13.769 44.96,13.483 44.492,13.483 44.013,13.483 43.32,13.769 
			43.188,14.114 43.729,14.264 		"/>
		<polygon points="42.826,12.566 43.021,11.799 42.449,11.665 41.818,11.964 42.209,12.761 		"/>
		<path d="M46.611,14.838c-0.053-0.131-0.104-0.262-0.156-0.393l-0.158,0.168l0.291,0.243L46.611,14.838z"/>
		<path d="M46.744,15.179l-0.657-0.194h-0.06v0.435l0.209,0.303h0.69C46.865,15.542,46.811,15.358,46.744,15.179z"/>
		<polygon points="39.595,8.028 39.595,8.509 40.783,8.509 41.027,8.179 41.027,8.177 41.027,7.804 40.705,7.804 40.168,7.804 
			40.122,7.984 39.595,7.984 		"/>
		<path d="M45.02,14.692c0,0.237,0,0.564,0,0.564l0.207-0.038l0.243-0.044l0.362-0.233v-0.48H45.02
			C45.02,14.484,45.02,14.579,45.02,14.692z"/>
		<polygon points="45.095,15.497 45.02,15.676 44.658,15.708 44.538,16.233 45.306,16.233 45.512,16.026 45.65,15.887 45.65,15.42 
			45.322,15.465 		"/>
		<path d="M39.595,9.44l0.228,0.271l1.187-0.076c0,0,0.045-0.525,0-0.525S40.439,9.2,40.439,9.2L39.595,9.44z"/>
	</g>
</g>
<g>
</g>
<g>
</g>
<g>
</g>
<g>
</g>
<g>
</g>
<g>
</g>
<g>
</g>
<g>
</g>
<g>
</g>
<g>
</g>
<g>
</g>
<g>
</g>
<g>
</g>
<g>
</g>
<g>
</g>
</svg>
